<?xml version="1.0" standalone="yes"?>
<svg xmlns="http://www.w3.org/2000/svg" width="1000" height="1000">
<path style="stroke:#000000; fill:none;" d="M597 222C594.962 214.973 590.879 208.679 585.201 203.931C581.676 200.983 575.993 200.952 573.921 196.075C571.403 190.149 585.734 184.387 590 184M599 188C593.159 193.703 596.801 201.681 587 202M541 193C540.196 195.647 535.089 198.624 536.497 195.01C537.478 192.491 540.703 192.432 542.777 193.451C544.874 194.483 545.846 197.31 548.274 197.637C554.57 198.485 565.334 194.843 572 194M585 195L592 192M535 197C528.967 206.477 523.667 218.119 514.829 225.481C509.022 230.32 499.489 228.589 494.754 235.329C492.528 238.497 480.171 252.944 485.589 255.963C491.979 259.523 489.55 249.44 487 247M600 197C608.436 197.65 607.523 206.039 614.058 209.15C626.824 215.227 640.017 219.707 652 227.694C666.035 237.05 678.189 251.204 693.089 259.103C697.97 261.691 705.592 260.416 711 261.326C723.447 263.42 744.673 269.572 755 276.8C766.759 285.03 766.997 299.171 774.966 309.867C779.837 316.406 789.748 320.854 795.911 326.439C803.596 333.404 808.129 342.6 815.184 349.896C827.52 362.653 842.455 373.201 854.486 386.289C858.223 390.355 864.143 395.482 866.825 400.209C868.693 403.502 867.333 407.549 870.318 410.352C878.622 418.149 889.526 423.902 897.961 432.09C908.701 442.518 916.614 456.644 924.89 469C931.142 478.335 938.787 486.798 943.638 497C953.979 518.743 960.759 545.321 964.714 569C965.692 574.854 964.164 581.401 965.356 586.911C966.171 590.673 970.034 593.488 971.647 597.001C974.721 603.692 975.641 611.71 975.961 619C976.46 630.411 974.068 643.357 969.939 654C968.874 656.744 968.261 662.481 965.658 664.137C960.2 667.611 949.545 661.395 943.318 664.452C940.339 665.915 940.59 671.23 939.613 674C936.804 681.963 927.598 689.233 926.071 697C925.085 702.015 930.575 706.57 933.386 710C941.488 719.885 952.02 729.293 958.86 740.039C966.067 751.364 963.475 770.105 964.039 783C964.198 786.62 963.634 797.386 966.603 799.682C972.34 804.119 989.857 801.995 997 802M540 198L546 198M595 203C599.932 206.798 603.452 209.799 610 209M599 207L594 212M539.333 222.082C543.107 219.813 555.453 225.892 549.663 229.972C544.438 233.654 533.068 225.848 539.333 222.082M488 246C483.773 240.096 485.88 236.232 493 236M495 242L492 251M486 258L486 261M543 258C540.526 263.663 536.829 270.379 531.829 274.196C522.433 281.371 510.311 282.784 509.36 297.985C508.92 305.004 517.081 304.677 522 305.169C535.807 306.55 554.02 303.483 545.319 323C544.057 325.833 542.397 328.567 539.906 330.487C534.411 334.723 526.115 335.461 520 338.875C496.821 351.815 474.718 355.842 449 360.803C426.978 365.051 407.413 369.676 385 370.791C369.252 371.575 352.923 368 337 368C333.608 368 323.021 366.278 320.921 369.588C318.431 373.514 331.582 377.756 334 378.83C351.443 386.58 361.452 404.293 379 412M692 259C677.344 271.812 664.969 287.36 651 300.985C644.769 307.063 635.044 313.512 631.897 322.039C629.88 327.502 634.463 333.305 633.517 339C632.652 344.205 622.786 363.623 617.039 363.338C612.687 363.122 612.26 358.023 610.698 355C607.552 348.913 601.355 342.214 596.675 337.17C584.559 324.109 566.093 319.171 550 313M510 293C506.632 293.58 502.448 296.003 499.043 295.073C493.117 293.454 491.243 284.897 494.14 280.129C500.786 269.195 528.232 254.543 540 263M777 313C777.713 319.388 781.242 323.545 787 319M782 318L782 319M782 323C784.453 331.597 789.085 338.793 792.161 347C794.677 353.713 794.416 361.317 796.563 368C797.715 371.587 800.773 374.249 801.542 378C802.4 382.19 800.576 386.759 800.571 391C800.565 396.359 805.44 404.185 802.968 408.907C796.236 421.759 777.922 426 765 426C742.004 426 714.368 423.877 693 432.603C675.62 439.701 657.794 448.26 641.129 456.839C633.896 460.562 631.577 467.156 622 466.782C619.941 466.702 618.001 465.987 616.001 465.566C600.162 462.238 616.361 444.383 609.397 435.225C603.799 427.864 584.492 427.979 576 427.17C548.055 424.508 522.352 437.095 495 439.829C475.049 441.824 460.131 433.407 441 432.089C422.658 430.826 404.346 434.412 386 432.907C379.142 432.344 373.62 426.877 367 426.291C362.022 425.85 358.39 429.509 353 428.319C335.094 424.369 317.919 414.872 304.005 403.406C292.699 394.09 292.205 381.864 305.209 373.149C308.983 370.62 313.821 371.386 318 370M720 349C709.587 352.107 698.477 349.99 688 353.039C667.364 359.046 648.064 378.578 636.461 395.985C632.481 401.956 627.923 408.4 622.969 413.576C621.4 415.215 618.44 417.966 620.643 420.339C624.584 424.583 624.501 415.758 624 414M313 373C310.67 375.259 309.646 376.034 307 374M302 378C304.996 379.424 305.567 379.273 308 377M299 380C303.16 384.355 308.655 392.372 300 395M305 381L305 384M295 387L304 387M334 390L347.015 405.907L365 425M596 395C601.468 398.429 612.238 402.784 612 410M308 406C313.797 399.231 307.161 395.123 301 400M619 422L619 440M625 423L623 446M664 426C652.806 434.201 641.878 442.677 630.911 451.061C624.948 455.619 619.577 457.233 617 465M671 432C665.177 436.389 652.196 443.669 651 451M658 446L658 447M635 451L639 457M72 588C62.2725 577.439 52.2316 551.581 57.1667 537C58.0311 534.446 61.2437 533.791 61.8333 531C62.7287 526.762 58.2108 523.794 58 520C57.0997 503.795 73.1699 487.273 83.8333 477.833C88.165 473.999 90.5385 468.973 96 466.167C123.955 451.801 160.759 453.052 186 472.333C191.391 476.451 197.889 482.333 201.667 488C203.09 490.134 202.881 493.673 204.5 495.5C208.312 499.8 211.96 502.388 215 508C228.194 532.359 224.383 563.812 208.667 586C206.147 589.557 201.834 594.204 198 596.333C196.247 597.307 192.35 596.388 191.333 598.167C190.201 600.148 193.054 601.134 193 603C192.936 605.224 187.69 608.517 186 609.667C178.159 615.003 169.725 615.152 161 617.333C154.176 619.039 149.344 624.286 142 625C125.43 626.611 108.519 617.407 95 609.333C89.7033 606.17 84.2577 604.137 80.3333 599C75.2377 592.329 72.5555 585.427 75.1667 577C75.3859 576.293 79 572.249 79 574C79 577.702 71.4529 567.721 71 566M139 459C135.921 464.772 130.843 469.313 127.453 475C119.658 488.076 111.026 509.78 109.785 525C109.036 534.178 112.414 543.81 113.089 553C113.678 561.033 114.561 567.93 114.005 576C113.881 577.788 113.125 581.811 115.407 582.654C118.145 583.667 120.664 579.891 121.786 577.995C125.757 571.293 127.82 563.077 131.222 556C141.427 534.772 154.161 514.717 163.427 493C166.998 484.632 172.576 476.246 173 467M635 466C638.708 482.203 652.945 494.054 662.211 507C668.8 516.205 672.689 527.865 677.651 538C680.947 544.731 687.48 554.154 687.164 561.961C686.908 568.303 674.437 575.592 670 579.425C654.251 593.031 637.805 607.134 623.425 622.17C614.077 631.944 606.086 642.2 601.436 655C599.082 661.479 598.589 668.634 596.02 675C589.343 691.547 578.265 710.77 567.525 724.999C558.049 737.554 545.59 743.595 530 745.443C524.938 746.043 519.94 743.947 515.001 746.089C509.302 748.562 508.761 753.781 504.582 757.411C502.556 759.171 499.556 759.05 497.599 760.857C495.944 762.386 496.045 765.738 493.831 766.654C490.816 767.902 491.492 761.752 496 761M84 479L82.0895 496L84.2461 530L83.1921 543L95.9606 567.29L99.341 573.964L99 570M203 497C196.817 518.787 190.504 544.729 172.961 560.711C166.052 567.005 156.979 570.145 150.039 576.224C143.57 581.891 139.882 590.03 132.91 595.295C128.674 598.494 117.366 600.88 115.341 606.424C113.514 611.426 125.243 610.39 121 606M57 523L57 534M60 535C63.2793 539.255 73.0637 552.826 73.2492 557.743C73.4302 562.54 67.3772 553.081 67 551M219 538C219.147 550.413 205.167 561.847 197 570C194.004 572.991 188.603 580.307 185 575M956 539L958 545M220 543L222 543M218 547L222 551M75 573C77.0629 569.015 73.7139 561.769 80 564M688 565C700.41 583.566 700.938 608.509 714.609 627C724.241 640.029 738.2 645.729 752 653.059C759.591 657.092 766.375 662.42 774 666.356C776.086 667.432 779.942 669.717 781.972 667.357C785.832 662.867 780.002 647.797 780 642C779.993 623.019 783.149 609.364 793 593M79 569L96 583M82 571L80 573M80 575L92 584M696 575L698 577M77 576C79.2208 578.207 83.081 583.746 86 581M102 576L113 584M152 621C149.523 618.152 147.636 613.035 144.468 611.042C141.585 609.227 135.132 611.7 133.707 607.519C132.21 603.125 141.526 600.054 144 597.907C156.626 586.944 167.783 582.012 184 579M85 580L83 582M693 580L696 586M106 583C107.077 587.027 109.014 586.11 112 584M86 584L100 599M117 584L125 590M97 585C102.166 590.865 116.027 596.647 116 604M103 585L105 585M111 585L113 597M106 590L106 591M87 593L89 595M83 594L87 598M98 595L114 607M122 596L122 597M97 598L93 600M111 598L111 600M145 610C155.533 603.461 177.63 600.417 190 599M196 598L194 602M118 599L120 601M129 604L132 608M131 604L133 604M99 612L113 606M124 607L128 607M121 612C129.546 614.267 136.829 615.114 145 611M954 611C946.051 625.665 943.002 646.462 943 663M961 664L967 660M782 669C784.084 672.76 790.143 689.555 786.307 692.972C783.404 695.559 775.64 693.834 772 694.089C761.337 694.837 750.689 698.021 740 699.166C724.803 700.793 707.488 699.092 693 703.746C676.41 709.075 661.704 725.778 652.461 740C646.892 748.568 641.552 757.138 636.424 766C635.019 768.428 631.657 772.715 633.161 775.678C634.752 778.815 642.03 777.587 645 777.834C656.697 778.808 668.265 780.285 680 781.089C728.081 784.385 777.784 794.208 826 789.7C839.513 788.436 853.739 787.676 867 784.475C871.083 783.489 878.047 780.926 878.534 775.985C879.211 769.119 862.477 757.078 857 754.274C827.565 739.204 808.918 721.312 789 695M506 758C511.8 763.507 514.724 770.099 524 769.87C530.494 769.709 535.544 764.892 542 766M510 764C492.814 776.719 519.458 783.195 531 785.522C544.495 788.242 558.676 789.069 572 792.478C585.127 795.837 599.547 802.365 613 796.468C622.107 792.476 625.737 782.977 632 776M496 769L501 769M238 828C247.638 827.919 256.797 824.155 266 821.64C287.818 815.676 309.121 807.917 331 802.154C386.697 787.485 444.602 777 502 777M899 808C884.134 812.394 870.795 808.073 856 808.001C850.758 807.975 840.958 808.571 838.06 802.795C836.457 799.599 840.954 799.089 843.002 798.973C849.115 798.626 856.229 800.046 862 802M965 800C959.414 804.88 953.818 811.625 947 814.725C930.932 822.033 911.326 822.802 894 821.96C888.223 821.679 882.907 819.644 877.004 820.159C873.314 820.481 871.301 823.328 867.911 824.127C853.364 827.552 837.868 824.151 843 807M835 801L836 801M854 823C855.496 813.836 868.113 816.605 874 820M989 992L992 992"/>
</svg>
