<?xml version="1.0" standalone="yes"?>
<svg xmlns="http://www.w3.org/2000/svg" width="664" height="295">
<path style="stroke:#000000; fill:none;" d="M72 179C52.2848 178.835 44.215 158.252 51.2245 141C55.0567 131.568 64.4062 125.028 73 120.306C95.8703 107.737 122.899 103.698 147 93.7114C183.19 78.7159 218.412 65.6009 256 54.2801C273.559 48.9917 291.449 41.8517 310 41.0394C331.532 40.0965 353.36 46.689 374 52.1157C422.682 64.9152 464.672 82.2627 507 110.079C519.149 118.063 531.455 127.038 541.985 137.09C550.563 145.277 553.67 152.36 565 156.108C586.822 163.328 596.433 193.723 610.299 210C614.165 214.538 624.96 225.029 617.682 231.272C611.796 236.322 600.695 233.213 594 231.789C569.81 226.644 553.735 207.455 533 195.862C524.908 191.338 509.22 186.377 506.877 175.999C504.073 163.574 527.239 161.064 535 161M69 129L76 126M75 128L72 128M209 148C216.746 148 225.466 146.889 233 148.927C250.985 153.793 260.95 171.362 273.039 184C279.43 190.68 291.512 197.354 293 207C346.215 207 395.643 190.483 448 184.285C461.191 182.724 474.717 182.942 488 183.001C495.004 183.032 502.624 184.403 509 181M558 156L559 160M111 158L116 171C105.575 177.151 104.125 156.891 111.05 157.617C117.995 158.346 116.956 167.851 124 169M113 166L116 164M117 169L118 169M53 175C51.4791 179.9 46.8335 185.695 47.5031 191C48.616 199.818 59.0973 201.294 66 200.961C82.2851 200.176 101.5 189.887 114 180M167 176C185.323 180.241 202.673 193.938 219 202.93C230.488 209.257 245.087 212.61 258 214.155C269.514 215.533 284.162 218.549 292 208M496 184C494.724 189.432 486.535 197.935 488.708 203.667C489.978 207.021 494.911 204.638 497 203.626C504.647 199.92 513.389 196.351 520 191M58 202C64.7993 214.607 86.8597 213.166 99 211.715C103.015 211.234 110.994 208.229 114.682 210.198C117.866 211.898 117.144 217.957 117.579 221C118.688 228.736 119.305 250.93 127.214 254.917C133.3 257.986 138.761 247.816 141.414 244C148.791 233.386 156.516 223.124 164.55 213C167.036 209.867 169.292 204.206 173.13 202.603C186.458 197.038 203.568 209.168 217 202M117 210C130.476 202.53 153.812 202 169 202"/>
</svg>
