<?xml version="1.0" standalone="yes"?>
<svg xmlns="http://www.w3.org/2000/svg" width="1000" height="1000">
<path style="stroke:#000000; fill:none;" d="M258 673C289.839 666.428 326.253 657.136 355 641.691C367.838 634.792 379.958 626.85 392 618.656C397.466 614.937 404.271 608.099 410.941 606.847C420.628 605.029 403.778 623.134 406.712 624.334C410.529 625.896 419.176 617.615 422 615.576C431.246 608.9 440.098 601.721 449 594.6C452.772 591.583 457.301 586.444 461.977 584.971C471.764 581.887 455.498 602.957 463.152 603.404C466.918 603.625 471.258 599.479 474 597.332C482.633 590.572 490.263 582.737 498 575C516.754 556.246 537.322 534.292 546.771 509C553.008 492.306 554.58 471.703 554.985 454C555.535 429.998 549.758 401.061 530 385.518C520.555 378.088 509.282 379.502 500.129 374.052C493.272 369.97 485.133 356.219 481.905 349C478.291 340.919 482.115 332.219 479.682 324.152C478.08 318.84 470.334 324.074 471.345 315.998C472.254 308.736 482.428 297.368 480.867 290.619C479.96 286.697 468.388 295.249 471.064 286.977C476.384 270.531 496.9 260.111 501.863 244.015C503.588 238.423 488.033 229.768 485.533 224C484.681 222.034 482.801 216.749 485.029 215.022C487.39 213.192 493.847 218.822 496 219.869C504.603 224.052 512.785 224.241 522 222.576C561.252 215.484 597.381 203.544 638 209.428C656.668 212.133 672.596 220.297 690 226.771C699.992 230.488 710.535 227.35 719 221.238C720.769 219.96 725.53 214.792 727.397 218.296C730.896 224.867 724.275 236.296 719.816 240.7C717.459 243.027 713.122 245.135 713.658 249.039C715.663 263.631 732.819 276.761 737.462 290.977C739.743 297.959 730.744 291.841 730.955 297.152C731.269 305.026 739.814 311.464 738.812 319.938C738.178 325.292 731.966 321.338 730.433 326.099C724.598 344.217 726.768 358.728 714.346 375C708.33 382.88 693.079 393.69 690.557 403C689.673 406.265 692.232 409.931 693.073 413C694.849 419.482 695.921 427.282 695.921 434C695.921 454.445 689.535 476.325 681.573 495C678.286 502.709 675.044 513.569 669.211 519.728C665.878 523.247 661.216 518.776 658.8 523.117C654.315 531.176 653.317 552.435 644.664 557.079C640.985 559.053 640.224 550.967 636.566 553.636C633.05 556.2 630.724 562.398 628.333 566C622.718 574.458 616.731 582.718 608 588.185C570.718 611.53 527.624 628.302 484 634.728C472.719 636.39 461.413 638 450 638C443.746 638 435.113 636.12 429.148 637.407C426.366 638.008 426.126 640.595 426.019 643.005C425.737 649.408 423.204 661.75 425.319 667.593C426.593 671.112 437.297 667.493 440 666.88C455.405 663.389 470.681 659.722 486 655.873C529.55 644.932 577.394 629.689 615 604.667C629.962 594.711 646.076 582.676 654 566M726 210L726 214M555 248.465C569.601 245.837 583.952 251.895 596 259.699C600.072 262.336 605.261 269.694 610 270.373C615.303 271.132 624.948 260.687 630 258.323C646.376 250.662 667.622 250.592 683 260.548C689.758 264.923 695.183 271.182 699.382 278C702.67 283.34 704.792 289.036 706.653 295C714.882 321.37 702.963 342.728 689.6 365C685.777 371.373 680.017 378.016 677.475 385C674.353 393.58 692.335 397.992 684.883 405.887C679.486 411.605 678.258 404.743 672.957 405.991C663.681 408.175 656.045 419.656 646.148 420.045C642.126 420.203 643.913 413.477 639.852 414.458C630.51 416.713 624.327 426.594 614 428.291C599.832 430.62 590.961 413.188 579.059 409.288C573.836 407.576 576.584 415.632 572.762 414.744C562.711 412.407 549.93 396.206 543.039 389C510.56 355.031 486.461 292.634 532 258.761C538.699 253.778 546.748 249.95 555 248.465M484 287L482 289M727 291L731 294M732 321L732 322M503 376C505.419 383.592 511.075 389.891 514.63 397C520.768 409.277 523.854 424.305 522.911 438C521.414 459.727 507.052 480.429 495.333 498C466.318 541.507 432.568 577.993 387 604.15C364.381 617.133 341.182 629.552 317 639.397C312.01 641.428 297.391 650.087 292.603 645.393C288.013 640.892 291.848 627.351 293.13 622C298.255 600.616 305.034 578.775 314.756 559C341.098 505.42 376.826 448.341 422 408.715C443.869 389.532 466.061 374 496 374M469 581L468 584M465 582L468 582M406 621L409 624M425 634C416.153 629.462 423.058 621.659 425.098 630.98C425.46 632.635 425.697 634.333 426 636M337 678C332.994 677.484 314.988 676.396 315.921 670.133C316.679 665.049 331.714 660.968 335.141 664.604C339.387 669.11 335.1 683.554 333.996 689C328.789 714.691 317.86 734.954 304.192 757C300.783 762.499 289.554 776.725 292.644 783.667C294.067 786.866 298.061 784.47 300 783.235C306.162 779.309 311.809 774.101 317 768.997C322.075 764.006 327.949 759.928 333 755M337 678C357.875 678 378.344 677.622 399 674.246C404.165 673.402 417.969 668.547 422.397 672.029C426.991 675.641 421.204 693.055 420.199 698C415.821 719.547 407.643 740.094 396.396 759C393.366 764.094 388.721 774.464 382.968 776.824C377.028 779.261 380.058 759.282 379.995 756.001C379.959 754.098 380.098 749.397 376.891 750.921C372.117 753.19 368.318 760.144 364.83 764C358.081 771.462 350.663 778.362 343 784.866C340.762 786.766 332.155 795.213 329.067 791.353C326.353 787.96 329.939 776.049 330.59 772C331.339 767.331 331.893 762.595 333 758M379 747L379 749"/>
</svg>
